<?xml version="1.0" encoding="utf-8"?>
<!-- Generator: Adobe Illustrator 25.4.8, SVG Export Plug-In . SVG Version: 6.00 Build 0)  -->
<svg version="1.1" id="Layer_1" xmlns="http://www.w3.org/2000/svg" xmlns:xlink="http://www.w3.org/1999/xlink" x="0px" y="0px"
	 viewBox="0 0 40 85" style="enable-background:new 0 0 40 85;" xml:space="preserve">
<style type="text/css">
	.st0{fill:#007E47;}
	.st1{fill:#FFD444;}
	.st2{fill:#004B93;}
	.st3{fill:#E63329;}
	.st4{fill:#FFFFFF;}
	.st5{fill:#1D1D1B;}
	.st6{fill:#D9D9D9;}
</style>
<g>
	<path class="st0" d="M20.1,57.2c0-12.03,0-24.2,0-24.2h-9.79l0,0H0.52c0,0,0,12.16,0,24.2H20.1z"/>
	<path class="st1" d="M39.61,57.2c0-12.03,0-24.2,0-24.2h-9.79l0,0h-9.79c0,0,0,12.16,0,24.2H39.61z"/>
	<path class="st2" d="M19.87,57.07V84c0.08,0.14,0.12,0.3,0.12,0.48h0c0-1.44,2.71-1.47,2.9-1.47c0.2,0,11.86,0,14.17,0
		c2.31,0,2.41-1.8,2.41-2.39c0-0.3,0-11.88,0-23.55H19.87z"/>
	<path class="st3" d="M19.94,57.07H0.52c0,11.67,0,23.25,0,23.55c0,0.6,0.1,2.39,2.41,2.39c2.31,0,13.97,0,14.16,0
		c0.18,0,2.46,0.02,2.85,1.14V57.07z"/>
	<path class="st4" d="M25.69,58.5c0,3.12-2.54,5.65-5.68,5.65c-3.13,0-5.67-2.53-5.67-5.65c0-3.12,2.54-5.65,5.67-5.65
		c0.13,0,0.4-0.26,0.52-0.32c0.34-0.17,0.69-0.25,1.03-0.17c0.35,0.09,0.58,0.88,0.9,1.03C24.37,54.31,25.69,56.25,25.69,58.5z"/>
	<path class="st4" d="M25.66,67.66l-1.47-0.16l0.16,6.43c0,0,2.42-1,5.33-0.03c0,0,1.81-0.78,5.44-0.13l0.04-7.08
		c0,0-1.34,0.26-3.65,0.46C29.19,67.33,29.84,67.82,25.66,67.66z"/>
	<g>
		<g>
			<g>
				<polygon class="st1" points="23.01,75.11 22.19,75.81 33.76,78.59 36.93,74.92 36.14,74.59 33.42,77.68 				"/>
			</g>
		</g>
	</g>
	<g>
		<g>
			<g>
				<path class="st1" d="M24.35,73.92c0,0,2.78-0.98,5.26-0.18c0,0,3.31-0.65,5.5,0.02l-0.03-0.93l1.1,0.23l-2.78,2.91l-10.09-2.08
					l0.93-0.85L24.35,73.92z"/>
			</g>
		</g>
	</g>
	<g>
		<polygon class="st5" points="14.79,23.72 16.36,17.75 11.57,13.85 17.75,13.5 20,7.75 22.24,13.5 28.43,13.85 23.63,17.75 
			25.21,23.72 20,20.38 		"/>
		<polygon class="st6" points="20,19.92 24.57,22.85 23.19,17.61 27.4,14.18 21.97,13.87 20,8.83 18.02,13.87 12.6,14.18 
			16.81,17.61 15.42,22.85 		"/>
	</g>
	<g>
		<g>
			<g>
				<polygon class="st5" points="18.61,11.84 16.27,4.66 16,4.74 18.45,12.24 				"/>
			</g>
			<g>
				<path class="st5" d="M18.45,12.44C18.45,12.44,18.45,12.44,18.45,12.44c-0.09,0-0.16-0.05-0.19-0.13l-2.45-7.5
					c-0.03-0.1,0.02-0.21,0.13-0.25l0.26-0.08c0.05-0.02,0.1-0.01,0.15,0.01c0.05,0.02,0.08,0.06,0.1,0.11l2.34,7.18
					c0.01,0.04,0.01,0.09,0,0.13l-0.16,0.4C18.6,12.39,18.53,12.44,18.45,12.44z"/>
			</g>
		</g>
		<g>
			<g>
				<polygon class="st5" points="7.5,16.67 15.34,16.67 15.01,16.4 7.5,16.4 				"/>
			</g>
			<g>
				<path class="st5" d="M15.34,16.86H7.5c-0.11,0-0.2-0.09-0.2-0.2V16.4c0-0.11,0.09-0.19,0.2-0.19h7.5c0.04,0,0.09,0.02,0.12,0.04
					l0.34,0.27c0.06,0.05,0.09,0.14,0.06,0.22C15.5,16.81,15.42,16.86,15.34,16.86z"/>
			</g>
		</g>
		<g>
			<g>
				<polygon class="st5" points="17.89,13.69 17.96,13.51 10.46,3.23 10.24,3.4 17.76,13.69 				"/>
			</g>
			<g>
				<path class="st5" d="M17.76,13.89c-0.06,0-0.12-0.03-0.16-0.08l-7.52-10.3c-0.03-0.04-0.04-0.09-0.03-0.14
					c0.01-0.05,0.04-0.1,0.08-0.13l0.22-0.16c0.09-0.06,0.21-0.04,0.27,0.04l7.5,10.27c0.04,0.05,0.05,0.12,0.02,0.19l-0.07,0.18
					c-0.03,0.07-0.1,0.12-0.17,0.12l-0.13,0.01C17.76,13.89,17.76,13.89,17.76,13.89z"/>
			</g>
		</g>
		<g>
			<g>
				<polygon class="st5" points="20,8.29 20.13,8.64 20.13,0.2 19.86,0.2 19.86,8.64 				"/>
			</g>
			<g>
				<path class="st5" d="M20.13,8.84c-0.05,0-0.1-0.02-0.14-0.06c-0.04,0.04-0.11,0.07-0.17,0.05c-0.09-0.02-0.16-0.1-0.16-0.19V0.2
					c0-0.11,0.09-0.2,0.2-0.2h0.27c0.11,0,0.19,0.09,0.19,0.2v8.45c0,0.09-0.07,0.17-0.16,0.19C20.16,8.84,20.14,8.84,20.13,8.84z"
					/>
			</g>
		</g>
		<g>
			<g>
				<polygon class="st5" points="24.01,13.8 30.19,9.33 30.03,9.11 23.58,13.77 				"/>
			</g>
			<g>
				<path class="st5" d="M24.01,13.99C24.01,13.99,24.01,13.99,24.01,13.99l-0.44-0.02c-0.08,0-0.15-0.06-0.18-0.14
					c-0.02-0.08,0.01-0.16,0.07-0.21l6.45-4.66c0.04-0.03,0.09-0.04,0.15-0.03c0.05,0.01,0.1,0.04,0.13,0.08l0.16,0.22
					c0.07,0.09,0.05,0.21-0.04,0.27l-6.17,4.47C24.09,13.98,24.05,13.99,24.01,13.99z"/>
			</g>
		</g>
		<g>
			<g>
				<polygon class="st5" points="27.91,14.02 27.71,14.18 35.65,11.61 35.57,11.35 27.42,13.99 				"/>
			</g>
			<g>
				<path class="st5" d="M27.71,14.37c-0.07,0-0.14-0.04-0.17-0.1c-0.01-0.03-0.02-0.06-0.02-0.08l-0.11-0.01
					c-0.09-0.01-0.17-0.08-0.18-0.17c-0.01-0.09,0.04-0.18,0.13-0.21l8.15-2.63c0.05-0.02,0.1-0.01,0.15,0.01
					c0.05,0.02,0.08,0.06,0.1,0.11l0.09,0.26c0.03,0.1-0.02,0.21-0.13,0.25l-7.94,2.57C27.75,14.37,27.73,14.37,27.71,14.37z"/>
			</g>
		</g>
		<g>
			<g>
				<polygon class="st5" points="16.41,13.77 9.97,9.11 9.81,9.33 15.98,13.8 				"/>
			</g>
			<g>
				<path class="st5" d="M15.98,13.99c-0.04,0-0.08-0.01-0.12-0.04L9.69,9.49C9.6,9.43,9.59,9.3,9.65,9.22l0.16-0.22
					c0.03-0.04,0.08-0.07,0.13-0.08c0.05-0.01,0.1,0,0.15,0.03l6.44,4.66c0.07,0.05,0.1,0.13,0.07,0.21
					c-0.02,0.08-0.09,0.14-0.18,0.14l-0.43,0.02C15.99,13.99,15.98,13.99,15.98,13.99z"/>
			</g>
		</g>
		<g>
			<g>
				<polygon class="st5" points="21.54,12.24 23.99,4.74 23.73,4.66 21.38,11.84 				"/>
			</g>
			<g>
				<path class="st5" d="M21.54,12.44c-0.08,0-0.15-0.05-0.18-0.12l-0.16-0.4c-0.02-0.04-0.02-0.09,0-0.13l2.35-7.18
					c0.03-0.1,0.14-0.16,0.25-0.13l0.26,0.08c0.05,0.02,0.09,0.05,0.11,0.1c0.02,0.04,0.03,0.1,0.01,0.15l-2.45,7.5
					C21.7,12.38,21.63,12.43,21.54,12.44C21.54,12.44,21.54,12.44,21.54,12.44z"/>
			</g>
		</g>
		<g>
			<g>
				<polygon class="st5" points="22.1,13.69 22.24,13.69 29.75,3.4 29.53,3.23 22.03,13.51 				"/>
			</g>
			<g>
				<path class="st5" d="M22.24,13.89c0,0-0.01,0-0.01,0l-0.13-0.01c-0.08-0.01-0.14-0.05-0.17-0.12l-0.07-0.18
					c-0.02-0.06-0.01-0.13,0.02-0.19l7.5-10.27c0.06-0.09,0.19-0.11,0.27-0.04l0.22,0.16c0.04,0.03,0.07,0.08,0.08,0.13
					c0.01,0.05,0,0.1-0.03,0.14l-7.52,10.3C22.36,13.86,22.3,13.89,22.24,13.89z"/>
			</g>
		</g>
		<g>
			<g>
				<polygon class="st5" points="32.49,16.4 24.99,16.4 24.65,16.67 32.49,16.67 				"/>
			</g>
			<g>
				<path class="st5" d="M24.65,16.86c-0.08,0-0.16-0.05-0.18-0.13c-0.03-0.08,0-0.17,0.06-0.22l0.34-0.27
					c0.03-0.03,0.08-0.04,0.12-0.04h7.5c0.05,0,0.1,0.02,0.14,0.06c0.04,0.04,0.06,0.09,0.06,0.14v0.27c0,0.11-0.09,0.2-0.2,0.2
					H24.65z"/>
			</g>
		</g>
		<g>
			<g>
				<polygon class="st5" points="12.08,14.02 12.58,13.99 4.43,11.35 4.35,11.61 12.28,14.18 				"/>
			</g>
			<g>
				<path class="st5" d="M12.28,14.37c-0.02,0-0.04,0-0.06-0.01L4.29,11.8c-0.1-0.03-0.16-0.14-0.13-0.25l0.09-0.26
					c0.02-0.05,0.05-0.09,0.1-0.11c0.05-0.02,0.1-0.03,0.15-0.01l8.15,2.63c0.09,0.03,0.14,0.12,0.13,0.21
					c-0.01,0.09-0.09,0.16-0.18,0.17l-0.11,0.01c0,0.03-0.01,0.06-0.02,0.08C12.42,14.34,12.35,14.37,12.28,14.37z"/>
			</g>
		</g>
		<g>
			<g>
				<polygon class="st5" points="21.31,20.99 23.73,28.41 23.99,28.32 21.67,21.22 				"/>
			</g>
			<g>
				<path class="st5" d="M23.73,28.6c-0.03,0-0.06-0.01-0.09-0.02c-0.05-0.02-0.08-0.06-0.1-0.11l-2.42-7.42
					c-0.03-0.08,0-0.16,0.07-0.21c0.06-0.05,0.16-0.05,0.22-0.01l0.37,0.23c0.04,0.02,0.07,0.06,0.08,0.1l2.32,7.1
					c0.03,0.1-0.02,0.21-0.13,0.25l-0.26,0.09C23.77,28.6,23.75,28.6,23.73,28.6z"/>
			</g>
		</g>
		<g>
			<g>
				<polygon class="st5" points="20,20.15 19.86,20.24 19.86,32.87 20.13,32.87 20.13,20.24 				"/>
			</g>
			<g>
				<path class="st5" d="M20.13,33.06h-0.27c-0.11,0-0.2-0.09-0.2-0.2V20.24c0-0.07,0.03-0.13,0.09-0.16l0.14-0.09
					c0.07-0.04,0.15-0.04,0.21,0l0.14,0.09c0.06,0.04,0.09,0.1,0.09,0.16v12.63C20.33,32.98,20.24,33.06,20.13,33.06z"/>
			</g>
		</g>
		<g>
			<g>
				<polygon class="st5" points="23.9,19.52 30.03,23.95 30.19,23.73 23.78,19.1 				"/>
			</g>
			<g>
				<path class="st5" d="M30.03,24.15c-0.04,0-0.08-0.01-0.12-0.04l-6.13-4.43c-0.04-0.03-0.06-0.06-0.07-0.11l-0.11-0.42
					c-0.02-0.08,0.01-0.17,0.08-0.21c0.07-0.05,0.16-0.05,0.23,0l6.4,4.63c0.09,0.06,0.11,0.18,0.04,0.27l-0.16,0.22
					c-0.03,0.04-0.08,0.07-0.13,0.08C30.05,24.15,30.04,24.15,30.03,24.15z"/>
			</g>
		</g>
		<g>
			<g>
				<polygon class="st5" points="23.41,17.68 23.44,17.79 35.57,21.71 35.65,21.45 23.57,17.55 				"/>
			</g>
			<g>
				<path class="st5" d="M35.57,21.91c-0.02,0-0.04,0-0.06-0.01l-12.13-3.92c-0.06-0.02-0.11-0.07-0.13-0.14l-0.03-0.11
					c-0.02-0.08,0.01-0.15,0.07-0.2l0.17-0.13c0.05-0.04,0.12-0.06,0.18-0.03l12.07,3.9c0.1,0.03,0.16,0.14,0.13,0.24l-0.09,0.26
					c-0.01,0.05-0.05,0.09-0.1,0.11C35.63,21.9,35.6,21.91,35.57,21.91z"/>
			</g>
		</g>
		<g>
			<g>
				<polygon class="st5" points="24.89,23.28 24.63,23.12 29.53,29.83 29.75,29.67 24.77,22.85 				"/>
			</g>
			<g>
				<path class="st5" d="M29.53,30.03c-0.06,0-0.12-0.03-0.16-0.08l-4.9-6.71c-0.06-0.08-0.05-0.18,0.01-0.25
					c0.03-0.03,0.06-0.05,0.1-0.06l-0.01-0.03c-0.02-0.09,0.02-0.19,0.11-0.23c0.09-0.04,0.19-0.01,0.24,0.06l4.98,6.82
					c0.03,0.04,0.04,0.09,0.03,0.14c-0.01,0.05-0.04,0.1-0.08,0.13l-0.22,0.16C29.61,30.01,29.57,30.03,29.53,30.03z"/>
			</g>
		</g>
		<g>
			<g>
				<polygon class="st5" points="18.32,21.22 16,28.32 16.27,28.41 18.69,20.99 				"/>
			</g>
			<g>
				<path class="st5" d="M16.27,28.6c-0.02,0-0.04,0-0.06-0.01l-0.26-0.09c-0.05-0.02-0.09-0.05-0.11-0.1
					c-0.02-0.05-0.03-0.1-0.01-0.15l2.32-7.1c0.01-0.04,0.04-0.08,0.08-0.1l0.36-0.23c0.07-0.04,0.16-0.04,0.23,0.01
					c0.07,0.05,0.09,0.14,0.07,0.21l-2.42,7.42C16.42,28.55,16.35,28.6,16.27,28.6z"/>
			</g>
		</g>
		<g>
			<g>
				<polygon class="st5" points="16.21,19.1 9.81,23.73 9.97,23.95 16.1,19.52 				"/>
			</g>
			<g>
				<path class="st5" d="M9.97,24.15c-0.01,0-0.02,0-0.03,0c-0.05-0.01-0.1-0.04-0.13-0.08l-0.16-0.22
					c-0.06-0.09-0.05-0.21,0.04-0.27l6.4-4.63c0.07-0.05,0.16-0.05,0.23,0c0.07,0.05,0.1,0.13,0.08,0.21l-0.11,0.42
					c-0.01,0.04-0.04,0.08-0.07,0.11l-6.13,4.43C10.05,24.14,10.01,24.15,9.97,24.15z"/>
			</g>
		</g>
		<g>
			<g>
				<polygon class="st5" points="16.58,17.68 16.42,17.55 4.35,21.45 4.43,21.71 16.56,17.79 				"/>
			</g>
			<g>
				<path class="st5" d="M4.43,21.91c-0.03,0-0.06-0.01-0.09-0.02c-0.05-0.02-0.08-0.06-0.1-0.11l-0.09-0.26
					c-0.03-0.1,0.02-0.21,0.13-0.24l12.07-3.9c0.06-0.02,0.13-0.01,0.18,0.03l0.17,0.13c0.06,0.05,0.09,0.13,0.07,0.2l-0.03,0.11
					c-0.02,0.06-0.06,0.11-0.13,0.14L4.49,21.9C4.47,21.9,4.45,21.91,4.43,21.91z"/>
			</g>
		</g>
		<g>
			<g>
				<polygon class="st5" points="15.1,23.28 15.22,22.85 10.24,29.67 10.46,29.83 15.36,23.12 				"/>
			</g>
			<g>
				<path class="st5" d="M10.46,30.03c-0.04,0-0.08-0.01-0.11-0.04l-0.22-0.16c-0.04-0.03-0.07-0.08-0.08-0.13
					c-0.01-0.05,0.01-0.1,0.03-0.14l4.98-6.82c0.06-0.08,0.16-0.1,0.24-0.06c0.09,0.04,0.13,0.14,0.1,0.23l-0.01,0.03
					c0.04,0.01,0.07,0.03,0.1,0.06c0.06,0.07,0.07,0.17,0.02,0.25l-4.9,6.71C10.58,30,10.52,30.03,10.46,30.03z"/>
			</g>
		</g>
	</g>
	<g>
		<g>
			<g>
				<g>
					<rect x="19.92" y="8.33" class="st5" width="0.16" height="11.82"/>
				</g>
				<g>
					<path class="st5" d="M20.14,20.21h-0.29V8.26h0.29V20.21z M19.98,20.09h0.03V8.39h-0.03V20.09z"/>
				</g>
			</g>
		</g>
		<g>
			<g>
				<g>
					
						<rect x="17.67" y="9.92" transform="matrix(0.3078 -0.9514 0.9514 0.3078 -2.7985 27.8557)" class="st5" width="0.16" height="11.87"/>
				</g>
				<g>
					<path class="st5" d="M23.41,17.83l-11.42-3.69l0.09-0.27l11.42,3.69L23.41,17.83z M12.16,14.06l11.17,3.61l0.01-0.02
						l-11.17-3.61L12.16,14.06z"/>
				</g>
			</g>
		</g>
		<g>
			<g>
				<g>
					<polygon class="st5" points="16.61,17.75 16.56,17.6 27.85,13.95 27.9,14.1 					"/>
				</g>
				<g>
					<path class="st5" d="M16.56,17.83l-0.09-0.27l11.42-3.69l0.09,0.27L16.56,17.83z M16.64,17.65l0.01,0.02l11.17-3.61l-0.01-0.02
						L16.64,17.65z"/>
				</g>
			</g>
		</g>
		<g>
			<g>
				<g>
					<polygon class="st5" points="24.81,23.31 17.83,13.74 17.96,13.65 24.94,23.21 					"/>
				</g>
				<g>
					<path class="st5" d="M24.8,23.4l-7.06-9.67l0.23-0.17l7.06,9.67L24.8,23.4z M17.92,13.75l6.91,9.46l0.02-0.02l-6.91-9.46
						L17.92,13.75z"/>
				</g>
			</g>
		</g>
		<g>
			<g>
				<g>
					
						<rect x="12.69" y="18.4" transform="matrix(0.59 -0.8074 0.8074 0.59 -7.2882 22.6003)" class="st5" width="11.84" height="0.16"/>
				</g>
				<g>
					<path class="st5" d="M15.2,23.4l-0.23-0.17l7.06-9.67l0.23,0.17L15.2,23.4z M15.15,23.2l0.02,0.02l6.9-9.46l-0.02-0.02
						L15.15,23.2z"/>
				</g>
			</g>
		</g>
	</g>
	<g>
		<g>
			<path class="st5" d="M20.52,85h-1.04v-0.52c0-0.78-1.76-0.95-2.38-0.95H2.93C1.07,83.53,0,82.47,0,80.62V32.48h20v1.04H1.04v47.1
				c0,1.26,0.62,1.88,1.88,1.88h14.16c1.06,0,2.24,0.24,2.9,0.84c0.66-0.6,1.84-0.84,2.9-0.84h14.17c1.27,0,1.89-0.61,1.89-1.88
				v-47.1H20v-1.04h20v48.14c0,1.85-1.07,2.92-2.93,2.92H22.9c-0.62,0-2.38,0.17-2.38,0.95V85z"/>
		</g>
	</g>
	<g>
		<g>
			<g>
				<path class="st5" d="M14.52,56.87H0.54v0.65h13.83C14.4,57.3,14.46,57.08,14.52,56.87z"/>
			</g>
		</g>
		<g>
			<g>
				<path class="st5" d="M25.47,56.87c0.06,0.21,0.12,0.43,0.16,0.65h13.99v-0.65H25.47z"/>
			</g>
		</g>
	</g>
	<g>
		<g>
			<g>
				<path class="st5" d="M20,52.84c0.11,0,0.22,0,0.33,0.01v-19.8h-0.65v19.8C19.78,52.85,19.89,52.84,20,52.84z"/>
			</g>
		</g>
		<g>
			<g>
				<path class="st5" d="M20,64.24c-0.11,0-0.22,0-0.33-0.01V83.9h0.65V64.23C20.21,64.24,20.11,64.24,20,64.24z"/>
			</g>
		</g>
	</g>
	<g>
		<g>
			<g>
				<path class="st5" d="M24.18,61.13h-8.37l-0.17-0.29l4.19-7.22h0.34l4.19,7.22L24.18,61.13z M16.15,60.74h7.7L20,54.1
					L16.15,60.74z"/>
			</g>
		</g>
	</g>
	<path class="st5" d="M22.1,54.39c-0.03,0-0.06-0.01-0.09-0.02c-0.19-0.09-1.01-0.25-1.27-0.3c-0.15-0.03-0.5-0.11-0.64-0.37
		c-0.04-0.08-0.04-0.18,0-0.26c0.05-0.09,0.16-0.16,0.28-0.2c-0.1-0.1-0.19-0.2-0.22-0.24c-0.06-0.09-0.09-0.23-0.03-0.39
		c0.11-0.25,0.41-0.41,0.94-0.51c0.72-0.13,1.1,0.43,1.37,0.83c0.12,0.18,0.24,0.36,0.35,0.41c0.1,0.05,0.14,0.16,0.09,0.26
		c-0.05,0.1-0.16,0.14-0.26,0.09c-0.2-0.1-0.35-0.32-0.51-0.55c-0.3-0.45-0.54-0.74-0.97-0.67c-0.51,0.09-0.62,0.23-0.65,0.26
		c-0.01,0.02-0.01,0.03-0.01,0.04c0.03,0.03,0.24,0.25,0.42,0.42c0.05,0.05,0.07,0.13,0.05,0.2c-0.02,0.07-0.09,0.12-0.16,0.13
		c-0.09,0.01-0.18,0.03-0.26,0.05c0.07,0.04,0.16,0.07,0.27,0.09c0.01,0,1.09,0.2,1.38,0.33c0.1,0.05,0.14,0.16,0.09,0.26
		C22.24,54.35,22.17,54.39,22.1,54.39z"/>
	<g>
		<g>
			<path class="st5" d="M22.23,54.05l-0.14,0.15c-0.24-0.11-1.19-0.29-1.33-0.32c-0.14-0.02-0.41-0.1-0.5-0.27
				c-0.01-0.03-0.01-0.05,0-0.08c-0.09,0-0.19-0.01-0.28-0.01c-2.78,0-5.04,2.25-5.04,5.02c0,2.77,2.26,5.02,5.04,5.02
				c2.78,0,5.04-2.25,5.04-5.02C25.04,56.57,23.89,54.87,22.23,54.05z M20,63.17c-2.56,0-4.65-2.08-4.65-4.63
				c0-2.55,2.09-4.63,4.65-4.63c2.56,0,4.65,2.08,4.65,4.63C24.65,61.09,22.56,63.17,20,63.17z"/>
		</g>
	</g>
	<g>
		<g>
			<path class="st5" d="M22.34,53.13c0.12,0.18,0.24,0.33,0.37,0.39l-0.14,0.15c1.75,0.92,2.95,2.76,2.95,4.87
				c0,3.03-2.48,5.5-5.53,5.5c-3.05,0-5.53-2.47-5.53-5.5c0-3.04,2.48-5.51,5.53-5.51c0.16,0,0.32,0.01,0.48,0.02
				c-0.07-0.08-0.14-0.14-0.15-0.17c-0.02-0.03-0.05-0.13,0.01-0.23c-0.11-0.01-0.22-0.01-0.33-0.01c-3.26,0-5.92,2.65-5.92,5.9
				c0,3.25,2.66,5.89,5.92,5.89c3.27,0,5.92-2.64,5.92-5.89C25.92,56.12,24.45,54.04,22.34,53.13z"/>
		</g>
	</g>
	<g>
		<g>
			<g>
				<path class="st5" d="M21.24,52.82c0,0.07-0.05,0.12-0.12,0.12c-0.07,0-0.12-0.05-0.12-0.12c0-0.07,0.05-0.12,0.12-0.12
					C21.18,52.7,21.24,52.76,21.24,52.82z"/>
			</g>
		</g>
		<g>
			<g>
				<path class="st5" d="M21.12,53.07c-0.14,0-0.25-0.11-0.25-0.25c0-0.14,0.11-0.25,0.25-0.25c0.14,0,0.25,0.11,0.25,0.25
					C21.37,52.96,21.25,53.07,21.12,53.07z"/>
			</g>
		</g>
	</g>
	<g>
		<g>
			<g>
				<path class="st5" d="M20,60.19c-0.9,0-1.63-0.73-1.63-1.62c0-0.89,0.73-1.62,1.63-1.62c0.9,0,1.63,0.73,1.63,1.62
					C21.63,59.46,20.89,60.19,20,60.19z M20,57.24c-0.73,0-1.33,0.59-1.33,1.32c0,0.73,0.6,1.32,1.33,1.32
					c0.73,0,1.33-0.59,1.33-1.32C21.33,57.84,20.73,57.24,20,57.24z"/>
			</g>
		</g>
	</g>
	<g>
		<g>
			<g>
				<path class="st5" d="M16.18,81.18h-1.55c-0.11,0-0.2-0.09-0.2-0.2v-3.24H3.93c-0.11,0-0.2-0.09-0.2-0.19v-1.68
					c0-0.11,0.09-0.2,0.2-0.2h12.25c0.11,0,0.19,0.09,0.19,0.2v1.68c0,0.01,0,0.02,0,0.03v3.41C16.38,81.09,16.29,81.18,16.18,81.18
					z"/>
				<path class="st4" d="M14.83,80.79h1.16v-3.24c0-0.01,0-0.02,0-0.03v-1.46H4.12v1.29h10.51c0.11,0,0.19,0.09,0.19,0.2V80.79z"/>
			</g>
		</g>
	</g>
	<g>
		<g>
			<g>
				<path class="st5" d="M12.66,75.92c-2.29,0-4.15-1.85-4.15-4.13c0-2.28,1.86-4.13,4.15-4.13c2.29,0,4.15,1.85,4.15,4.13
					C16.81,74.07,14.95,75.92,12.66,75.92z"/>
				<path class="st2" d="M12.66,68.05c-2.07,0-3.76,1.68-3.76,3.74c0,2.06,1.69,3.74,3.76,3.74c2.07,0,3.75-1.68,3.75-3.74
					C16.42,69.73,14.73,68.05,12.66,68.05z"/>
			</g>
		</g>
	</g>
	<g>
		<g>
			<g>
				<g>
					<line class="st4" x1="5.48" y1="62.67" x2="12.4" y2="67.07"/>
				</g>
			</g>
			<g>
				<g>
					<polygon class="st5" points="12.34,67.15 5.43,62.75 5.53,62.59 12.45,66.99 					"/>
				</g>
			</g>
		</g>
		<g>
			<g>
				<g>
					<line class="st4" x1="5.43" y1="62.71" x2="11.52" y2="67.21"/>
				</g>
			</g>
			<g>
				<g>
					<polygon class="st5" points="11.47,67.29 5.37,62.79 5.49,62.63 11.58,67.13 					"/>
				</g>
			</g>
		</g>
		<g>
			<g>
				<g>
					<line class="st4" x1="5.38" y1="62.76" x2="10.85" y2="67.43"/>
				</g>
			</g>
			<g>
				<g>
					<polygon class="st5" points="10.79,67.5 5.32,62.83 5.44,62.68 10.91,67.35 					"/>
				</g>
			</g>
		</g>
		<g>
			<g>
				<g>
					<line class="st4" x1="5.33" y1="62.8" x2="10.31" y2="67.7"/>
				</g>
			</g>
			<g>
				<g>
					<polygon class="st5" points="10.24,67.77 5.26,62.87 5.4,62.73 10.38,67.63 					"/>
				</g>
			</g>
		</g>
		<g>
			<g>
				<g>
					<line class="st4" x1="5.28" y1="62.84" x2="9.83" y2="68"/>
				</g>
			</g>
			<g>
				<g>
					<polygon class="st5" points="9.76,68.07 5.2,62.9 5.35,62.78 9.9,67.94 					"/>
				</g>
			</g>
		</g>
		<g>
			<g>
				<g>
					<line class="st4" x1="5.23" y1="62.88" x2="9.42" y2="68.37"/>
				</g>
			</g>
			<g>
				<g>
					<polygon class="st5" points="9.34,68.43 5.15,62.94 5.31,62.82 9.49,68.31 					"/>
				</g>
			</g>
		</g>
		<g>
			<g>
				<g>
					<line class="st4" x1="5.18" y1="62.92" x2="9.04" y2="68.77"/>
				</g>
			</g>
			<g>
				<g>
					<polygon class="st5" points="8.95,68.82 5.09,62.98 5.26,62.87 9.12,68.72 					"/>
				</g>
			</g>
		</g>
		<g>
			<g>
				<g>
					<line class="st4" x1="5.13" y1="62.97" x2="8.69" y2="69.24"/>
				</g>
			</g>
			<g>
				<g>
					<polygon class="st5" points="8.6,69.28 5.04,63.01 5.21,62.92 8.77,69.19 					"/>
				</g>
			</g>
		</g>
		<g>
			<g>
				<g>
					<line class="st4" x1="5.08" y1="63.01" x2="8.36" y2="69.79"/>
				</g>
			</g>
			<g>
				<g>
					<polygon class="st5" points="8.27,69.83 4.99,63.05 5.16,62.97 8.45,69.75 					"/>
				</g>
			</g>
		</g>
		<g>
			<g>
				<g>
					<line class="st4" x1="5.02" y1="63.05" x2="8.09" y2="70.49"/>
				</g>
			</g>
			<g>
				<g>
					<polygon class="st5" points="8,70.53 4.93,63.09 5.11,63.01 8.18,70.46 					"/>
				</g>
			</g>
		</g>
		<g>
			<g>
				<g>
					<line class="st4" x1="4.97" y1="63.09" x2="7.93" y2="71.63"/>
				</g>
			</g>
			<g>
				<g>
					
						<rect x="6.35" y="62.84" transform="matrix(0.9451 -0.3267 0.3267 0.9451 -21.6513 5.8025)" class="st5" width="0.2" height="9.04"/>
				</g>
			</g>
		</g>
	</g>
	<g>
		<g>
			<g>
				<path class="st5" d="M5.87,63.74l-1.08-0.69l-1.08,0.69l0.33-1.24l-0.99-0.81l1.28-0.07l0.47-1.19l0.47,1.19l1.28,0.07
					L5.55,62.5L5.87,63.74z M4.07,62.02l0.41,0.33l-0.13,0.51l0.45-0.28l0.45,0.28l-0.14-0.51l0.41-0.33l-0.53-0.03L4.79,61.5
					L4.6,61.99L4.07,62.02z"/>
			</g>
		</g>
	</g>
	<polygon class="st4" points="4.07,62.02 4.48,62.36 4.35,62.87 4.79,62.58 5.24,62.87 5.11,62.36 5.52,62.02 4.99,61.99 4.79,61.5 
		4.6,61.99 	"/>
	<g>
		<g>
			<g>
				<path class="st5" d="M11.62,75.24c-0.09,0-0.16-0.05-0.18-0.12c-0.02-0.07-0.04-0.26-0.07-0.7c-0.01-0.14-0.02-0.28-0.03-0.31
					c-0.01-0.05-0.01-0.16,0-0.35c0-0.15,0.01-0.4-0.01-0.44c-0.01-0.01-0.02-0.05-0.03-0.09c-0.02-0.08-0.08-0.29-0.16-0.32
					c-0.62-0.23-0.6-0.43-0.59-0.49c0-0.03-0.01-0.13-0.01-0.21c-0.03-0.36-0.04-0.6,0.11-0.69c0.05-0.03,0.11-0.06,0.17-0.09
					c0.03-0.02,0.08-0.04,0.12-0.06c-0.09-0.05-0.19-0.1-0.22-0.21c-0.03-0.04-0.2-0.15-0.3-0.21c-0.12-0.08-0.19-0.13-0.24-0.17
					c-0.02-0.02-0.04-0.05-0.07-0.13c-0.15-0.31-0.22-0.36-0.25-0.37c-0.16-0.01-0.63-0.13-0.73-0.34
					c-0.03-0.07-0.03-0.15,0.01-0.21c0.11-0.17,0.64-0.9,0.94-1.12c0.41-0.3,1.04-0.58,1.07-0.6c0.04-0.02,0.08-0.02,0.12,0
					c0.04,0.02,0.06,0.06,0.07,0.1c0,0,0.05,0.38,0.07,0.54c0.01,0.09,0.05,0.17,0.13,0.15c0.04-0.01,0.13-0.11,0.2-0.17
					c0.13-0.13,0.26-0.26,0.4-0.26c0,0,0.02,0,0.02,0l0,0c0.03,0,0.08-0.02,0.12-0.04c0.06-0.03,0.12-0.05,0.18-0.05
					c0.05,0,0.21,0.02,0.21,0.27c0,0.12,0,0.19-0.01,0.25c-0.01,0.09-0.01,0.15,0.01,0.3c0.02,0.13-0.02,0.26-0.11,0.36
					c-0.13,0.14-0.33,0.2-0.45,0.12c-0.02-0.01-0.04-0.03-0.07-0.05c-0.05-0.04-0.1-0.08-0.14-0.08c-0.01,0-0.02,0-0.03,0.01
					c-0.14,0.06-0.31,0.19-0.35,0.32c-0.07,0.19-0.25,0.36-0.39,0.36c-0.01,0-0.04,0-0.05-0.01c-0.13-0.04-0.14-0.21-0.14-0.38
					c-0.01-0.01-0.04-0.06-0.07-0.07c-0.04-0.01-0.08-0.02-0.12-0.03c-0.03-0.01-0.06-0.02-0.08-0.02
					c-0.06,0.07-0.17,0.24-0.15,0.36c0.03,0.17,0.34,0.62,0.44,0.66c0.2,0.08,0.96,0.71,1.01,0.76c0.05,0.03,0.43,0.18,0.58,0.23
					c0.33,0.09,0.72,0.26,0.76,0.55c0.04,0.28-0.17,0.77-0.34,0.9c-0.12,0.09-0.29,0.26-0.43,0.43c-0.03,0.04-0.06,0.07-0.09,0.1
					c-0.06,0.07-0.09,0.09-0.14,0.4c-0.08,0.45-0.31,1.05-0.32,1.08c-0.01,0.03-0.03,0.05-0.06,0.07
					C11.88,75.17,11.74,75.24,11.62,75.24z"/>
				<polygon class="st5" points="11.62,74.98 11.62,75.11 11.62,74.98 				"/>
				<path class="st4" d="M10.81,72.44c0.02,0.04,0.15,0.13,0.42,0.23c0.21,0.07,0.28,0.34,0.32,0.5c0.01,0.03,0.01,0.05,0.02,0.06
					c0.03,0.06,0.03,0.18,0.02,0.54c0,0.11,0,0.27,0,0.3c0.01,0.04,0.02,0.15,0.03,0.33c0.01,0.16,0.03,0.43,0.05,0.57
					c0.02-0.01,0.05-0.02,0.08-0.03c0.05-0.15,0.22-0.63,0.29-0.99c0.07-0.35,0.11-0.42,0.21-0.53c0.02-0.02,0.04-0.05,0.07-0.08
					c0.15-0.19,0.34-0.37,0.48-0.48c0.09-0.07,0.27-0.46,0.24-0.66c-0.01-0.09-0.2-0.22-0.58-0.33c-0.09-0.02-0.61-0.21-0.69-0.29
					c-0.07-0.07-0.79-0.65-0.92-0.7c-0.22-0.09-0.57-0.64-0.6-0.86c-0.04-0.26,0.16-0.53,0.23-0.6c0.03-0.03,0.08-0.06,0.16-0.06
					c0.06,0,0.12,0.02,0.17,0.04c0.03,0.01,0.05,0.02,0.07,0.02c0.16,0.03,0.29,0.19,0.29,0.32c0,0.02,0,0.04,0,0.06
					c0.03-0.03,0.05-0.07,0.07-0.12c0.08-0.22,0.31-0.39,0.49-0.46c0.04-0.02,0.09-0.03,0.13-0.03c0.13,0,0.23,0.08,0.3,0.13
					c0.01,0.01,0.03,0.02,0.04,0.03c0.03,0,0.08-0.03,0.12-0.07c0.03-0.03,0.06-0.08,0.05-0.15c-0.02-0.17-0.02-0.25-0.01-0.35
					c0-0.06,0.01-0.12,0.01-0.23c-0.01,0-0.02,0.01-0.02,0.01c-0.07,0.03-0.16,0.07-0.25,0.06c-0.04,0.01-0.15,0.12-0.21,0.18
					c-0.11,0.1-0.2,0.2-0.31,0.23c-0.22,0.07-0.43-0.11-0.46-0.37c-0.01-0.09-0.03-0.24-0.04-0.35c-0.21,0.11-0.59,0.3-0.86,0.49
					c-0.23,0.16-0.67,0.74-0.86,1.03c0.07,0.07,0.33,0.17,0.5,0.18c0.2,0.02,0.34,0.26,0.47,0.52c0.01,0.03,0.03,0.05,0.03,0.06
					c0.03,0.03,0.11,0.08,0.19,0.13c0.25,0.16,0.38,0.25,0.41,0.36c0.01,0.01,0.07,0.04,0.1,0.06c0.09,0.05,0.22,0.11,0.19,0.25
					c-0.02,0.12-0.16,0.18-0.33,0.27c-0.05,0.02-0.1,0.05-0.14,0.07c-0.03,0.07-0.01,0.33,0,0.46
					C10.81,72.29,10.82,72.38,10.81,72.44z"/>
			</g>
		</g>
	</g>
	<g>
		<g>
			<g>
				<path class="st5" d="M13.66,69.17c-0.19,0-0.32-0.09-0.33-0.22c0-0.04-0.06-0.13-0.11-0.16c-0.12-0.06-0.23-0.12-0.29-0.27
					c-0.06-0.13-0.08-0.36-0.09-0.39c0-0.02,0-0.04,0.01-0.05l0.07-0.22c0.02-0.06,0.07-0.09,0.13-0.09c0.02,0,0.53,0.03,0.98,0.22
					c0.03,0.01,0.06,0.04,0.07,0.08c0.01,0.04,0.01,0.08-0.01,0.11c-0.07,0.11-0.15,0.26-0.16,0.3c0,0.02,0,0.05-0.01,0.1
					c-0.02,0.38-0.05,0.59-0.22,0.61C13.69,69.17,13.68,69.17,13.66,69.17z"/>
				<path class="st4" d="M13.58,68.9c0.01,0,0.02,0.01,0.04,0.01c0.02-0.09,0.03-0.28,0.04-0.36c0-0.06,0.01-0.11,0.01-0.13
					c0.01-0.06,0.06-0.16,0.11-0.25c-0.26-0.09-0.52-0.12-0.66-0.14l-0.03,0.1c0.01,0.09,0.03,0.22,0.06,0.28
					c0.03,0.06,0.07,0.09,0.17,0.14C13.46,68.62,13.56,68.78,13.58,68.9z"/>
			</g>
		</g>
	</g>
	<g>
		<g>
			<g>
				<path class="st5" d="M15.79,74.29c-0.02,0-0.04,0-0.06-0.01c-0.05-0.03-0.08-0.08-0.07-0.14c0.03-0.17,0.06-0.39,0.06-0.44
					c-0.02-0.05-0.02-0.13-0.02-0.25c0-0.06,0-0.12-0.01-0.17c0-0.04-0.05-0.13-0.08-0.19c-0.05-0.09-0.08-0.17-0.09-0.24
					c-0.01-0.09-0.06-0.19-0.14-0.29c-0.08-0.09-0.12-0.21-0.15-0.32c-0.02-0.07-0.05-0.15-0.08-0.18c-0.07-0.09-0.1-0.19-0.13-0.27
					c-0.01-0.03-0.02-0.07-0.03-0.08c-0.15-0.15,0.1-0.55,0.1-0.56c0.05-0.07,0.22-0.15,0.34-0.2c0,0,0.01,0,0.02-0.01
					c0.23-0.06,0.32-0.08,0.36-0.09c0.03-0.02,0.08-0.06,0.11-0.09c-0.01-0.04-0.03-0.09-0.05-0.14c-0.02-0.06-0.03-0.13-0.02-0.2h0
					c-0.03,0.02-0.07,0.05-0.14,0.05c-0.12,0.01-0.21-0.01-0.37-0.06c-0.05-0.02-0.07-0.02-0.07-0.02
					c-0.05,0.01-0.09-0.02-0.12-0.04c-0.1-0.07-0.16-0.09-0.19-0.1c-0.01,0-0.07,0-0.12,0.01l-0.01,0
					c-0.01,0.02-0.03,0.05-0.04,0.08c-0.01,0.1-0.03,0.22-0.03,0.25c0,0.18-0.36,0.28-0.47,0.28c-0.02,0-0.04,0-0.06,0
					c-0.29-0.07-0.35-0.11-0.38-0.19c-0.03-0.1,0.07-0.34,0.1-0.4c0-0.02-0.01-0.04-0.02-0.06c-0.02-0.06-0.05-0.14-0.01-0.22
					c0.04-0.07,0.12-0.14,0.14-0.15c0.02-0.02,0.05-0.03,0.09-0.03c0.03,0,0.16,0,0.22,0.01c0,0,0.03-0.01,0.05-0.02
					c0.04-0.05,0.1-0.14,0.14-0.18l0.01-0.01c0.04-0.04,0.08-0.07,0.08-0.15c0.01-0.08,0-0.12-0.01-0.17c0-0.02-0.01-0.05-0.01-0.07
					c0-0.02-0.01-0.03-0.05-0.07c-0.02-0.02-0.04-0.04-0.05-0.07c-0.08-0.11-0.11-0.19-0.11-0.26c0-0.12,0.05-0.21,0.15-0.26
					c0.03-0.01,0.12-0.09,0.2-0.17c0.04-0.04,0.11-0.05,0.16-0.02c0.01,0.01,0.2,0.12,0.42,0.31c0.21,0.19,0.92,1.17,1.11,1.51
					c0.2,0.35,0.37,1.37,0.2,2.36c-0.17,0.97-0.75,1.64-0.77,1.67C15.86,74.28,15.82,74.29,15.79,74.29z"/>
				<path class="st4" d="M15.2,71.56c0.03,0.04,0.05,0.1,0.06,0.15c0.02,0.06,0.04,0.14,0.08,0.18c0.06,0.08,0.09,0.17,0.12,0.27
					c0.03,0.09,0.06,0.17,0.1,0.23c0.12,0.14,0.19,0.28,0.2,0.43c0,0.02,0.04,0.1,0.07,0.15c0.05,0.1,0.1,0.2,0.11,0.29
					c0,0.05,0.01,0.12,0.01,0.19c0,0.06,0,0.16,0.01,0.18c0,0.01,0.01,0.02,0.01,0.04c0.16-0.27,0.35-0.67,0.42-1.13
					c0.16-0.92,0-1.88-0.17-2.19c-0.18-0.32-0.87-1.28-1.06-1.44c-0.12-0.1-0.23-0.19-0.3-0.23c-0.06,0.05-0.14,0.11-0.19,0.14l0,0
					c0,0-0.01,0.01-0.01,0.02c0,0,0.01,0.03,0.07,0.11c0.01,0.01,0.02,0.03,0.03,0.04c0.04,0.05,0.09,0.11,0.1,0.21
					c0,0.02,0.01,0.04,0.01,0.06c0.01,0.06,0.02,0.13,0.01,0.24c-0.01,0.17-0.11,0.26-0.16,0.31c-0.03,0.03-0.09,0.11-0.13,0.18
					c-0.01,0.02-0.03,0.04-0.05,0.05c-0.03,0.02-0.16,0.07-0.25,0.05c-0.02,0-0.07-0.01-0.12-0.01c-0.01,0.01-0.02,0.02-0.03,0.03
					c0,0.01,0.01,0.02,0.01,0.02c0.02,0.06,0.06,0.16,0.01,0.26c-0.02,0.04-0.05,0.12-0.07,0.18c0.04,0.01,0.09,0.03,0.17,0.04
					c0.05,0,0.16-0.04,0.21-0.08c0.01-0.08,0.03-0.21,0.03-0.25c0-0.01,0-0.02,0-0.02c0.03-0.09,0.1-0.24,0.22-0.26l0.03,0
					c0.07-0.01,0.18-0.03,0.25,0c0.06,0.02,0.14,0.06,0.24,0.13c0.04,0,0.08,0.01,0.14,0.03c0.15,0.05,0.19,0.06,0.26,0.05
					c0.01,0,0.01,0,0.02-0.01c0.03-0.02,0.07-0.05,0.15-0.05c0.09,0,0.18,0.02,0.19,0.03c0.07,0.02,0.11,0.09,0.09,0.15
					c-0.02,0.07-0.02,0.16-0.02,0.18c0.04,0.08,0.06,0.17,0.07,0.22c0.02,0.07-0.02,0.13-0.05,0.17c0,0-0.17,0.2-0.3,0.2
					c-0.02,0-0.18,0.04-0.3,0.08c-0.11,0.05-0.22,0.1-0.24,0.13C15.26,71.35,15.2,71.49,15.2,71.56z"/>
			</g>
		</g>
	</g>
	<g>
		<g>
			<g>
				<path class="st5" d="M33.81,80.87c-0.02,0-0.04,0-0.06-0.01c-0.08-0.03-0.13-0.1-0.13-0.19l0.01-2.12
					c0-0.05,0.02-0.09,0.05-0.13l3.17-3.69c0.05-0.06,0.14-0.09,0.22-0.06c0.08,0.03,0.13,0.11,0.13,0.19l-0.01,0.27
					c-0.02,0.43-0.02,0.45,0.03,0.66c0.03,0.15,0.17,0.22,0.17,0.22c0.06,0.03,0.1,0.07,0.11,0.13c0.01,0.06,0,0.12-0.04,0.17
					l-3.48,4.47C33.93,80.84,33.87,80.87,33.81,80.87z"/>
				<path class="st4" d="M34.01,78.63l0,1.47l3.01-3.86c-0.09-0.08-0.16-0.2-0.2-0.36c-0.04-0.19-0.05-0.26-0.05-0.46L34.01,78.63z"
					/>
			</g>
		</g>
	</g>
	<g>
		<g>
			<g>
				<path class="st5" d="M29.68,73.67c-0.02,0-0.04,0-0.05-0.01c-0.08-0.03-0.14-0.1-0.14-0.19l0.13-7.28
					c0-0.06,0.03-0.12,0.09-0.16c0.45-0.29,0.85-0.42,1.28-0.42c0.45,0,0.88,0.15,1.28,0.32c0.18,0.08,0.38,0.11,0.61,0.11
					c0.62,0,1.18-0.28,1.19-0.28c0.06-0.03,0.13-0.03,0.19,0.01c0.06,0.04,0.09,0.1,0.09,0.17c0,0.05,0.02,5.37,0,7.19
					c0,0.06-0.03,0.12-0.08,0.15c-0.05,0.04-0.11,0.05-0.17,0.03c-0.88-0.24-1.66-0.36-2.33-0.36c-1.5,0-1.91,0.62-1.91,0.62
					C29.81,73.64,29.74,73.67,29.68,73.67z"/>
				<path class="st4" d="M30,66.31l-0.12,6.71c0.33-0.22,0.91-0.46,1.88-0.46c0.64,0,1.37,0.1,2.19,0.31c0.01-1.72,0-5.56,0-6.65
					c-0.25,0.09-0.65,0.2-1.08,0.2c-0.28,0-0.53-0.05-0.76-0.14c-0.49-0.21-0.81-0.29-1.12-0.29C30.66,66.01,30.35,66.11,30,66.31z"
					/>
			</g>
		</g>
	</g>
	<g>
		<g>
			<g>
				<path class="st5" d="M29.64,73.65c-0.06,0-0.12-0.03-0.16-0.08c-0.24-0.33-0.82-0.5-1.69-0.5c-1.22,0-2.59,0.34-2.6,0.35
					c-0.06,0.01-0.12,0-0.17-0.03c-0.05-0.04-0.08-0.09-0.08-0.15l-0.08-6.35c0-0.06,0.03-0.12,0.07-0.16
					c0.05-0.04,0.11-0.05,0.17-0.04c0,0,0.25,0.06,0.63,0.06c0.47,0,1.17-0.08,1.85-0.49c0.48-0.29,0.97-0.43,1.43-0.43
					c0.55,0,0.88,0.21,0.89,0.22c0.06,0.04,0.09,0.1,0.09,0.17c0,0-0.1,4.2-0.16,7.25c0,0.08-0.06,0.16-0.14,0.18
					C29.68,73.65,29.66,73.65,29.64,73.65z"/>
				<path class="st5" d="M27.8,72.68c0.73,0,1.29,0.12,1.66,0.35c0.06-2.69,0.14-6.03,0.15-6.7c-0.11-0.05-0.31-0.11-0.59-0.11
					c-0.39,0-0.8,0.13-1.23,0.38c-0.76,0.45-1.54,0.54-2.05,0.54c-0.19,0-0.35-0.01-0.47-0.03l0.07,5.88
					C25.8,72.88,26.83,72.68,27.8,72.68z"/>
			</g>
		</g>
	</g>
	<g>
		<g>
			<g>
				<path class="st5" d="M29.64,73.65c-0.06,0-0.12-0.03-0.16-0.08c-0.24-0.33-0.82-0.5-1.69-0.5c-1.22,0-2.59,0.34-2.6,0.35
					c-0.06,0.01-0.12,0-0.17-0.03c-0.05-0.04-0.08-0.09-0.08-0.15l-0.08-6.35c0-0.06,0.03-0.12,0.07-0.16
					c0.05-0.04,0.11-0.05,0.17-0.04c0,0,0.25,0.06,0.63,0.06c0.47,0,1.17-0.08,1.85-0.49c0.48-0.29,0.97-0.43,1.43-0.43
					c0.55,0,0.88,0.21,0.89,0.22c0.06,0.04,0.09,0.1,0.09,0.17c0,0-0.1,4.2-0.16,7.25c0,0.08-0.06,0.16-0.14,0.18
					C29.68,73.65,29.66,73.65,29.64,73.65z"/>
				<path class="st4" d="M27.8,72.68c0.73,0,1.29,0.12,1.66,0.35c0.06-2.69,0.14-6.03,0.15-6.7c-0.11-0.05-0.31-0.11-0.59-0.11
					c-0.39,0-0.8,0.13-1.23,0.38c-0.76,0.45-1.54,0.54-2.05,0.54c-0.19,0-0.35-0.01-0.47-0.03l0.07,5.88
					C25.8,72.88,26.83,72.68,27.8,72.68z"/>
			</g>
		</g>
	</g>
	<g>
		<g>
			<g>
				<path class="st5" d="M33.45,77.88c-0.02,0-0.04,0-0.07-0.01c-0.08-0.03-0.13-0.1-0.13-0.18l-0.05-1.63
					c0-0.05,0.02-0.1,0.05-0.14l2.79-2.98c0.06-0.06,0.14-0.08,0.22-0.05c0.07,0.03,0.12,0.1,0.12,0.18l0,0.24
					c-0.01,0.38-0.01,0.38,0.03,0.56c0.03,0.12,0.13,0.16,0.14,0.17c0.06,0.03,0.1,0.08,0.11,0.14c0.01,0.06,0,0.12-0.04,0.17
					l-3.03,3.47C33.56,77.85,33.5,77.88,33.45,77.88z"/>
				<path class="st4" d="M33.59,76.12l0.03,1.06l2.56-2.94c-0.07-0.07-0.13-0.16-0.16-0.29c-0.03-0.15-0.05-0.23-0.05-0.38
					L33.59,76.12z"/>
			</g>
		</g>
	</g>
	<g>
		<g>
			<g>
				<g>
					<path class="st5" d="M36.19,73.21c0,0-0.01,0-0.02,0l-1.07-0.09c-0.11-0.01-0.19-0.1-0.18-0.21c0.01-0.11,0.1-0.19,0.21-0.18
						l1.07,0.09c0.11,0.01,0.19,0.1,0.18,0.21C36.38,73.13,36.29,73.21,36.19,73.21z"/>
				</g>
			</g>
		</g>
		<g>
			<g>
				<g>
					<path class="st5" d="M33.4,77.9c-0.02,0-0.03,0-0.05-0.01l-9.95-2.41c-0.22-0.04-0.66-0.3-0.67-0.95
						c-0.01-0.28,0.07-0.5,0.21-0.64c0.21-0.21,0.48-0.19,0.48-0.19c0.01,0,0.02,0,0.02,0l10,2.08c0.09,0.02,0.16,0.1,0.16,0.19
						l0,1.73c0,0.06-0.03,0.12-0.07,0.15C33.49,77.88,33.45,77.9,33.4,77.9z"/>
					<path class="st1" d="M23.39,74.09c-0.03,0-0.1,0.01-0.16,0.07c-0.07,0.07-0.1,0.2-0.1,0.36c0.01,0.49,0.33,0.57,0.37,0.58
						l9.71,2.35l0-1.32L23.39,74.09z"/>
				</g>
			</g>
		</g>
		<g>
			<g>
				<g>
					<path class="st5" d="M23.11,74.19c-0.05,0-0.11-0.02-0.15-0.06c-0.07-0.08-0.07-0.2,0.01-0.28l1.13-1.02
						c0.08-0.07,0.2-0.07,0.28,0.01c0.07,0.08,0.07,0.2-0.02,0.27l-1.13,1.02C23.21,74.18,23.16,74.19,23.11,74.19z"/>
				</g>
			</g>
		</g>
		<g>
			<g>
				<g>
					<path class="st5" d="M25.23,75.91c-0.11,0-0.19-0.09-0.19-0.19v-1.36c0-0.11,0.09-0.2,0.19-0.2c0.11,0,0.2,0.09,0.2,0.2v1.36
						C25.43,75.82,25.34,75.91,25.23,75.91z"/>
				</g>
			</g>
		</g>
		<g>
			<g>
				<g>
					<path class="st5" d="M26.18,76.14c-0.11,0-0.2-0.09-0.2-0.19v-1.33c0-0.11,0.09-0.2,0.2-0.2c0.11,0,0.2,0.09,0.2,0.2v1.33
						C26.38,76.06,26.29,76.14,26.18,76.14z"/>
				</g>
			</g>
		</g>
		<g>
			<g>
				<g>
					<path class="st5" d="M30.42,77.12c-0.11,0-0.2-0.09-0.2-0.19V75.5c0-0.11,0.09-0.19,0.2-0.19c0.11,0,0.2,0.09,0.2,0.19v1.43
						C30.62,77.04,30.53,77.12,30.42,77.12z"/>
				</g>
			</g>
		</g>
	</g>
	<g>
		<g>
			<g>
				<g>
					<path class="st5" d="M33.76,80.85c-0.02,0-0.04,0-0.05-0.01l-11.39-3.19c-0.26-0.06-0.74-0.36-0.74-1.09
						c0-0.68,0.4-0.92,0.74-0.92c0.03,0,0.05,0,0.05,0c0.01,0,0.02,0,0.02,0.01l11.42,2.75c0.09,0.02,0.15,0.1,0.15,0.19v2.06
						c0,0.06-0.03,0.12-0.08,0.16C33.85,80.83,33.8,80.85,33.76,80.85z"/>
					<path class="st1" d="M22.32,76.04c-0.14,0-0.35,0.08-0.35,0.53c0,0.59,0.39,0.7,0.44,0.71l11.16,3.12v-1.65L22.32,76.04z"/>
				</g>
			</g>
		</g>
		<g>
			<g>
				<g>
					<path class="st5" d="M22,76.14c-0.05,0-0.11-0.02-0.15-0.07c-0.07-0.08-0.06-0.21,0.02-0.27l1.02-0.89
						c0.08-0.07,0.21-0.06,0.28,0.02c0.07,0.08,0.06,0.21-0.02,0.28l-1.02,0.89C22.09,76.13,22.04,76.14,22,76.14z"/>
				</g>
			</g>
		</g>
		<g>
			<g>
				<g>
					<path class="st5" d="M36.99,75.01c-0.01,0-0.01,0-0.02,0l-0.9-0.09c-0.11-0.01-0.19-0.11-0.18-0.21
						c0.01-0.11,0.11-0.19,0.22-0.18l0.9,0.09c0.11,0.01,0.19,0.11,0.18,0.21C37.17,74.93,37.09,75.01,36.99,75.01z"/>
				</g>
			</g>
		</g>
		<g>
			<g>
				<g>
					<path class="st5" d="M23.54,77.89c-0.07,0-0.13-0.06-0.13-0.13v-1.54c0-0.07,0.06-0.13,0.13-0.13c0.07,0,0.13,0.06,0.13,0.13
						v1.54C23.67,77.83,23.61,77.89,23.54,77.89z"/>
				</g>
			</g>
		</g>
		<g>
			<g>
				<g>
					<path class="st5" d="M30.16,79.74c-0.07,0-0.13-0.06-0.13-0.13v-1.8c0-0.07,0.06-0.13,0.13-0.13c0.07,0,0.13,0.06,0.13,0.13
						v1.8C30.29,79.68,30.23,79.74,30.16,79.74z"/>
				</g>
			</g>
		</g>
	</g>
	<path class="st5" d="M29.69,66.1c-0.81,0-1.49-0.51-1.7-1.26c-0.01-0.05,0-0.1,0.05-0.14c0.04-0.03,0.1-0.04,0.14-0.01
		c0,0,0.13,0.07,0.3,0.12c-0.16-0.22-0.27-0.5-0.33-0.73c-0.01-0.05,0-0.1,0.04-0.14c0.04-0.03,0.1-0.04,0.14-0.01
		c0,0,0.14,0.07,0.32,0.13c-0.11-0.18-0.19-0.39-0.24-0.57c-0.01-0.05,0-0.1,0.05-0.14c0.04-0.03,0.1-0.04,0.14-0.01
		c0,0,0.27,0.14,0.51,0.19c0.22-0.25,0.27-0.59,0.3-0.85c0.03-0.24,0.07-0.45,0.27-0.45c0.18,0,0.22,0.19,0.25,0.42
		c0.04,0.25,0.1,0.59,0.32,0.84c0.25-0.04,0.53-0.15,0.54-0.15c0.05-0.02,0.1-0.01,0.13,0.03c0.04,0.03,0.05,0.08,0.04,0.13
		c-0.05,0.18-0.13,0.39-0.24,0.57c0.18-0.06,0.32-0.13,0.32-0.14c0.05-0.03,0.1-0.02,0.14,0.01c0.04,0.03,0.06,0.09,0.05,0.14
		c-0.06,0.22-0.18,0.5-0.34,0.73c0.18-0.06,0.3-0.13,0.31-0.13c0.05-0.03,0.1-0.02,0.14,0.01c0.04,0.03,0.06,0.09,0.04,0.14
		C31.18,65.59,30.49,66.1,29.69,66.1z"/>
	<path class="st1" d="M28.34,65.04c0.25,0.49,0.76,0.8,1.34,0.8c0.58,0,1.09-0.31,1.34-0.79c-0.14,0.05-0.32,0.1-0.51,0.12
		c-0.06,0.01-0.12-0.03-0.13-0.08c-0.02-0.06,0-0.12,0.05-0.15c0.18-0.12,0.34-0.38,0.45-0.64c-0.14,0.05-0.32,0.11-0.51,0.13
		c-0.06,0.01-0.11-0.03-0.14-0.08c-0.02-0.05,0-0.12,0.05-0.15c0.13-0.09,0.25-0.3,0.34-0.51c-0.12,0.04-0.27,0.07-0.41,0.09
		c-0.04,0-0.08-0.01-0.11-0.04c-0.32-0.32-0.39-0.74-0.44-1.03c0,0,0,0,0,0c0,0.01,0,0.02,0,0.03c-0.04,0.29-0.11,0.73-0.42,1.04
		c-0.03,0.03-0.07,0.04-0.11,0.04c-0.13-0.01-0.26-0.06-0.38-0.1c0.08,0.2,0.19,0.38,0.32,0.47c0.05,0.03,0.07,0.1,0.05,0.15
		c-0.02,0.05-0.08,0.09-0.14,0.08c-0.18-0.02-0.36-0.07-0.5-0.12c0.11,0.26,0.27,0.52,0.45,0.64c0.05,0.03,0.07,0.1,0.05,0.15
		c-0.02,0.06-0.08,0.09-0.14,0.08C28.67,65.14,28.49,65.09,28.34,65.04z"/>
	<g>
		<g>
			<g>
				<path class="st5" d="M30.6,45.62c-0.01,0-0.03,0-0.04,0c-0.07-0.01-0.12-0.06-0.15-0.13c-0.18-0.51-0.51-1.07-0.69-1.07
					c-0.02,0-0.06,0.01-0.11,0.02c-0.24,0.04-0.72,0.13-1.29,0.13c-1.77,0-2.83-0.82-3.06-2.39c-0.45-3.09,0.81-4.11,0.97-4.23
					c0.37-0.34,0.81-0.52,1.27-0.52c0.82,0,1.58,0.57,1.74,1.31c0.19,0.89-0.3,1.99-0.55,2.1c-0.05,0.02-0.11,0.03-0.17,0.03h0
					c-0.31,0-0.67-0.32-0.87-0.54c-0.09,0.11-0.21,0.32-0.28,0.6c-0.1,0.35-0.14,0.87,0.17,1.38c0.17,0.27,0.45,0.38,0.99,0.38
					c0.16,0,0.32-0.01,0.49-0.02c0.17-0.01,0.35-0.02,0.53-0.02c0.45,0,1.02,0.06,1.39,0.53c0.73,0.91,0.19,1.95-0.19,2.36
					C30.71,45.6,30.66,45.62,30.6,45.62z"/>
				<path class="st4" d="M29.72,44.03c0.41,0,0.74,0.58,0.93,1c0.21-0.35,0.46-0.98-0.02-1.59c-0.21-0.27-0.54-0.38-1.08-0.38
					c-0.17,0-0.34,0.01-0.51,0.02c-0.17,0.01-0.34,0.02-0.51,0.02c-0.45,0-1.01-0.06-1.32-0.57c-0.45-0.73-0.3-1.46-0.17-1.84
					c0.11-0.33,0.34-0.72,0.56-0.8c0.08-0.03,0.17-0.01,0.22,0.06c0.25,0.31,0.56,0.55,0.7,0.55c0.13-0.16,0.49-0.96,0.34-1.67
					c-0.12-0.56-0.71-1-1.35-1c-0.37,0-0.72,0.14-1.01,0.42c-0.01,0.01-0.02,0.02-0.02,0.02c0,0-0.31,0.22-0.57,0.8
					c-0.24,0.54-0.48,1.51-0.25,3.06c0.2,1.36,1.1,2.05,2.67,2.05c0.53,0,1-0.08,1.22-0.12c0.07-0.01,0.12-0.02,0.14-0.02
					C29.7,44.03,29.71,44.03,29.72,44.03z"/>
			</g>
		</g>
	</g>
	<g>
		<g>
			<g>
				<path class="st5" d="M29.79,48.25c-0.57,0-0.99-0.14-1.27-0.44c-0.87-0.9-0.17-2.17,0.32-2.72c0.04-0.04,0.09-0.07,0.15-0.07
					c0.06,0,0.11,0.03,0.15,0.08c0.01,0.01,0.27,0.36,0.61,0.88c0.04,0.06,0.04,0.13,0.01,0.2c-0.02,0.04-0.03,0.06-0.03,0.07
					c0.02,0.01,0.09,0.04,0.26,0.04c0.22,0,0.53-0.05,0.87-0.14c0.93-0.23,1.64-0.08,1.99,0.43c0.33,0.48,0.22,1.01-0.35,1.59
					c-0.05,0.05-0.13,0.07-0.2,0.05c-0.07-0.02-0.12-0.08-0.13-0.16c-0.01-0.05-0.09-0.07-0.24-0.07c-0.21,0-0.52,0.05-0.83,0.11
					C30.68,48.17,30.22,48.25,29.79,48.25z"/>
				<path class="st4" d="M28.98,45.55c-0.29,0.4-0.82,1.33-0.18,2c0.2,0.21,0.53,0.32,0.99,0.32c0.4,0,0.85-0.08,1.24-0.15
					c0.34-0.06,0.65-0.11,0.9-0.11c0.22,0,0.36,0.05,0.46,0.12c0.37-0.46,0.26-0.74,0.14-0.91c-0.17-0.24-0.46-0.36-0.88-0.36
					c-0.21,0-0.44,0.03-0.7,0.1c-0.26,0.07-0.65,0.15-0.97,0.15c-0.31,0-0.5-0.08-0.6-0.23c-0.04-0.07-0.08-0.19-0.02-0.35
					C29.21,45.88,29.07,45.68,28.98,45.55z"/>
			</g>
		</g>
	</g>
	<g>
		<g>
			<g>
				<path class="st5" d="M33.88,54.43c-0.01,0-0.03,0-0.04,0c-0.25-0.03-0.33-0.29-0.4-0.52c-0.05-0.15-0.1-0.32-0.19-0.42
					c-0.06-0.06-0.13-0.12-0.2-0.19c-0.22-0.2-0.47-0.43-0.5-0.86c0-0.06-0.01-0.11-0.01-0.16c-0.02-0.48-0.03-0.73-0.42-1.07
					c-0.16-0.14-0.34-0.2-0.56-0.27c-0.37-0.12-0.8-0.25-1.15-0.84c-0.59-0.99,0.52-2.02,0.57-2.06c0.04-0.04,0.09-0.06,0.15-0.05
					c0.05,0,0.1,0.03,0.14,0.07c0.62,0.76,0.78,1.09,0.82,1.25c0.03,0,0.06-0.01,0.1-0.01c0.13-0.02,0.29-0.04,0.46-0.04
					c0.23,0,0.43,0.04,0.58,0.12c0.68,0.34,0.66,0.95,0.58,1.38c-0.11,0.6,0.08,0.79,0.29,0.98c0.15,0.14,0.32,0.31,0.33,0.6
					c0.01,0.45-0.07,1.71-0.36,2C34.01,54.41,33.93,54.43,33.88,54.43z"/>
				<path class="st4" d="M31.11,48.47c-0.24,0.28-0.67,0.88-0.35,1.42c0.28,0.47,0.59,0.57,0.93,0.67c0.24,0.07,0.48,0.15,0.7,0.35
					c0.51,0.45,0.52,0.84,0.55,1.34c0,0.05,0,0.1,0.01,0.16c0.01,0.27,0.17,0.41,0.37,0.6c0.08,0.07,0.15,0.14,0.22,0.22
					c0.15,0.16,0.21,0.38,0.27,0.56c0.01,0.04,0.03,0.1,0.05,0.14c0.1-0.31,0.2-1.04,0.19-1.59c0-0.13-0.07-0.2-0.21-0.33
					c-0.24-0.22-0.56-0.52-0.41-1.34c0.09-0.51-0.01-0.78-0.37-0.96c-0.1-0.05-0.24-0.08-0.41-0.08c-0.14,0-0.28,0.02-0.41,0.03
					c-0.1,0.01-0.18,0.02-0.25,0.02c-0.04,0-0.18,0-0.26-0.11c-0.03-0.04-0.07-0.12-0.03-0.23c0,0,0,0,0,0
					C31.66,49.22,31.39,48.83,31.11,48.47z"/>
			</g>
		</g>
	</g>
	<g>
		<g>
			<g>
				<g>
					<path class="st5" d="M25.4,40.39c-0.06,0-0.12-0.03-0.16-0.08l-1.53-2.13c-0.15,0.03-0.3,0.05-0.44,0.05
						c-0.42,0-0.77-0.15-0.96-0.44c-0.41-0.59-0.03-1.53,0.85-2.13c0.43-0.29,0.91-0.45,1.34-0.45c0.43,0,0.77,0.15,0.96,0.44
						c0.27,0.39,0.2,0.94-0.17,1.46l0.84,1.29c0.04,0.07,0.04,0.15,0,0.22c-0.19,0.28-0.45,0.79-0.55,1.6
						c-0.01,0.08-0.07,0.15-0.15,0.17C25.44,40.39,25.42,40.39,25.4,40.39z"/>
					<path class="st3" d="M23.8,37.76c0.06,0,0.12,0.03,0.16,0.08l1.33,1.85c0.12-0.54,0.3-0.93,0.46-1.19l-0.85-1.3
						c-0.05-0.07-0.04-0.16,0.01-0.23c0.33-0.41,0.42-0.85,0.23-1.11c-0.12-0.17-0.34-0.27-0.64-0.27c-0.35,0-0.76,0.14-1.12,0.38
						c-0.68,0.46-1.02,1.19-0.75,1.59c0.12,0.17,0.34,0.27,0.64,0.27c0.15,0,0.3-0.02,0.47-0.07C23.76,37.76,23.78,37.76,23.8,37.76
						z"/>
				</g>
			</g>
		</g>
		<g>
			<g>
				<g>
					<path class="st5" d="M28.52,43.09L28.52,43.09c-0.45,0-1.01-0.06-1.32-0.57c-0.56-0.9-0.2-1.82-0.08-2.08
						c0.03-0.06,0.09-0.11,0.17-0.11c0.07,0,0.14,0.03,0.18,0.09l1.55,2.36c0.04,0.06,0.04,0.13,0.01,0.2
						c-0.03,0.06-0.09,0.1-0.17,0.11C28.75,43.09,28.63,43.09,28.52,43.09z"/>
					<path class="st3" d="M27.36,40.96c-0.09,0.34-0.13,0.86,0.18,1.36c0.17,0.27,0.45,0.38,0.96,0.38L27.36,40.96z"/>
				</g>
			</g>
		</g>
		<g>
			<g>
				<g>
					<path class="st5" d="M28.61,39.08c0,0.14-0.12,0.26-0.26,0.26c-0.14,0-0.26-0.12-0.26-0.26c0-0.14,0.12-0.26,0.26-0.26
						C28.49,38.82,28.61,38.94,28.61,39.08z"/>
				</g>
			</g>
			<g>
				<g>
					<path class="st5" d="M28.34,39.47c-0.22,0-0.39-0.17-0.39-0.39c0-0.21,0.17-0.39,0.39-0.39c0.22,0,0.39,0.17,0.39,0.39
						C28.74,39.3,28.56,39.47,28.34,39.47z M28.34,38.95c-0.07,0-0.13,0.06-0.13,0.13s0.06,0.13,0.13,0.13
						c0.07,0,0.13-0.06,0.13-0.13S28.42,38.95,28.34,38.95z"/>
				</g>
			</g>
		</g>
		<g>
			<g>
				<g>
					<path class="st5" d="M29.98,46.68L29.98,46.68c-0.02,0-0.04,0-0.06,0c-0.06,0-0.12-0.03-0.15-0.08l-1.53-2.12
						c-0.04-0.06-0.05-0.14-0.02-0.2c0.03-0.07,0.1-0.11,0.17-0.11c0.5-0.01,0.93-0.09,1.14-0.12c0.07-0.01,0.12-0.02,0.14-0.02
						c0.01,0,0.02,0,0.03,0l0.02,0c0.06,0,0.13,0.04,0.16,0.09l1.37,2.08c0.03,0.05,0.04,0.12,0.01,0.18
						c-0.02,0.06-0.08,0.1-0.14,0.12c-0.06,0.01-0.12,0.02-0.18,0.04C30.69,46.6,30.31,46.68,29.98,46.68z"/>
					<path class="st3" d="M28.77,44.54l1.26,1.75c0.2-0.01,0.46-0.04,0.75-0.11l-1.14-1.75c-0.01,0-0.01,0-0.02,0
						C29.44,44.46,29.14,44.52,28.77,44.54z"/>
				</g>
			</g>
		</g>
		<g>
			<g>
				<g>
					<g>
						<path class="st5" d="M33.25,49.8c-0.04,0-0.07-0.01-0.11-0.03c-0.03-0.02-0.06-0.03-0.09-0.05c-0.1-0.05-0.24-0.08-0.41-0.08
							c-0.14,0-0.28,0.02-0.41,0.03c-0.05,0.01-0.09,0.01-0.13,0.02c-0.07,0.01-0.14-0.02-0.18-0.08l-0.4-0.55
							c-0.12-0.18-0.26-0.38-0.36-0.51l-0.37-0.51c-0.04-0.05-0.05-0.13-0.02-0.19c0.02-0.06,0.08-0.11,0.15-0.12l0.09-0.02
							c0.43-0.07,0.83-0.14,1.08-0.1c0.06,0.01,0.11,0.04,0.14,0.09l1.16,1.78c0.03,0.03,0.05,0.08,0.05,0.13
							C33.45,49.72,33.36,49.8,33.25,49.8L33.25,49.8z"/>
						<path class="st3" d="M31.3,48.07l0.18,0.26c0.1,0.13,0.25,0.33,0.38,0.52l0.32,0.45c0,0,0.01,0,0.01,0
							c0.13-0.02,0.29-0.03,0.45-0.03c0.05,0,0.1,0,0.14,0.01l-0.83-1.27C31.8,47.99,31.56,48.02,31.3,48.07z"/>
					</g>
				</g>
			</g>
			<g>
				<g>
					<g>
						<path class="st5" d="M36.86,55.84c-0.04,0-0.08-0.01-0.11-0.03l-0.69-0.47c-0.02-0.01-0.03-0.03-0.05-0.05l-1.93-2.69
							c-0.02-0.03-0.04-0.07-0.04-0.11c0-0.05,0-0.1,0-0.14c0-0.13-0.07-0.2-0.21-0.33c-0.24-0.22-0.56-0.52-0.41-1.34
							c0.03-0.18,0.04-0.32,0.03-0.45c-0.01-0.09,0.04-0.18,0.13-0.21c0.09-0.03,0.18,0,0.23,0.08l3.03,4.63
							c0.01,0.02,0.02,0.04,0.03,0.06l0.19,0.81c0.02,0.08-0.01,0.16-0.08,0.2C36.94,55.83,36.9,55.84,36.86,55.84z"/>
						<path class="st3" d="M36.31,55.04l0.25,0.17l-0.07-0.29l-2.69-4.1c-0.09,0.56,0.1,0.74,0.3,0.93c0.15,0.14,0.32,0.31,0.33,0.6
							c0,0.03,0,0.06,0,0.09L36.31,55.04z"/>
					</g>
				</g>
			</g>
		</g>
	</g>
	<g>
		<g>
			<path class="st5" d="M35.28,66.48c-0.05-0.04-0.12-0.05-0.18-0.03c-0.3,0.1-0.68,0.19-0.99,0.25v0.4
				c0.25-0.05,0.57-0.12,0.86-0.2c-0.01,1.35-0.03,5.58-0.04,6.63c-0.51-0.09-1.77-0.29-3.01-0.29c-0.88,0-1.58,0.1-2.09,0.3
				c-0.02,0.05-0.06,0.09-0.12,0.11c-0.02,0.01-0.04,0.01-0.06,0.01c-0.06,0-0.12-0.03-0.16-0.08c0-0.01-0.01-0.01-0.01-0.02
				c-0.38-0.12-1.17-0.32-2.2-0.32c-0.94,0-1.87,0.16-2.77,0.49c-0.01-1.63-0.1-5.08-0.12-6.02c0.13,0.02,0.3,0.05,0.51,0.08
				l-0.01-0.4c-0.4-0.06-0.66-0.11-0.67-0.11c-0.06-0.01-0.12,0-0.16,0.04c-0.05,0.04-0.07,0.09-0.07,0.15
				c0,0.05,0.13,4.85,0.13,6.53c0,0.06,0.03,0.12,0.09,0.16c0.03,0.02,0.07,0.03,0.11,0.03c0.02,0,0.05,0,0.07-0.01
				c0.94-0.37,1.91-0.56,2.89-0.56c1.38,0,2.3,0.39,2.31,0.39c0.05,0.02,0.12,0.02,0.17-0.01c0.46-0.25,1.19-0.37,2.16-0.37
				c1.54,0,3.15,0.32,3.17,0.33c0.06,0.01,0.12,0,0.16-0.04c0.05-0.04,0.07-0.09,0.07-0.15c0-0.06,0.04-6.08,0.04-7.13
				C35.36,66.58,35.33,66.52,35.28,66.48z"/>
		</g>
	</g>
	<g>
		<g>
			<g>
				<path class="st5" d="M20,60.28c-1.2,0-2.32-0.6-2.98-1.61l-0.07-0.11l0.07-0.11c0.66-1.01,1.77-1.6,2.98-1.6
					c1.2,0,2.32,0.6,2.98,1.6l0.07,0.11l-0.07,0.11C22.31,59.68,21.2,60.28,20,60.28z M17.42,58.57c0.6,0.83,1.55,1.32,2.58,1.32
					c1.03,0,1.98-0.49,2.58-1.32c-0.6-0.83-1.55-1.32-2.58-1.32C18.97,57.25,18.01,57.74,17.42,58.57z"/>
			</g>
		</g>
	</g>
	<g>
		<g>
			<g>
				<path class="st5" d="M20.69,58.55c0,0.38-0.31,0.69-0.69,0.69c-0.38,0-0.69-0.31-0.69-0.69c0-0.38,0.31-0.69,0.69-0.69
					C20.38,57.86,20.69,58.17,20.69,58.55z"/>
			</g>
		</g>
	</g>
	<g>
		<g>
			<g>
				<g>
					<polygon class="st5" points="4.46,75.89 4.16,75.75 5.41,72.4 6.32,72.84 					"/>
					<polygon class="st1" points="5.59,72.85 5.06,74.28 5.85,72.98 					"/>
				</g>
			</g>
		</g>
		<g>
			<g>
				<g>
					<polygon class="st5" points="7.85,75.89 5.99,72.84 6.9,72.4 8.14,75.75 					"/>
					<polygon class="st1" points="6.46,72.98 7.25,74.28 6.72,72.85 					"/>
				</g>
			</g>
		</g>
		<g>
			<g>
				<g>
					<path class="st5" d="M6.16,73.07c-0.52,0-0.94-0.42-0.94-0.94c0-0.52,0.42-0.94,0.94-0.94c0.52,0,0.94,0.42,0.94,0.94
						C7.1,72.65,6.68,73.07,6.16,73.07z"/>
					<path class="st1" d="M6.16,71.58c-0.3,0-0.55,0.25-0.55,0.55c0,0.3,0.25,0.55,0.55,0.55c0.3,0,0.55-0.24,0.55-0.55
						C6.71,71.83,6.46,71.58,6.16,71.58z"/>
				</g>
			</g>
		</g>
	</g>
	<g>
		<g>
			<path class="st4" d="M8.46,52.56c0.03,0.94,0.8,1.7,1.75,1.7c0.95,0,1.73-0.76,1.75-1.7H8.46z"/>
			<path class="st5" d="M10.21,54.45c-1.06,0-1.92-0.83-1.95-1.89c0-0.05,0.02-0.1,0.05-0.14c0.04-0.04,0.09-0.06,0.14-0.06h3.51
				c0.05,0,0.1,0.02,0.14,0.06c0.04,0.04,0.06,0.09,0.06,0.14C12.13,53.62,11.28,54.45,10.21,54.45z M8.67,52.75
				c0.12,0.75,0.76,1.31,1.54,1.31c0.78,0,1.42-0.56,1.54-1.31H8.67z"/>
		</g>
		<g>
			<polygon class="st4" points="11.01,52.55 9.32,52.55 10.16,35.71 			"/>
			<path class="st5" d="M11.01,52.75L11.01,52.75h-1.7c-0.05,0-0.1-0.02-0.14-0.06c-0.04-0.04-0.06-0.09-0.05-0.14L9.96,35.7
				c0-0.1,0.09-0.19,0.2-0.19l0,0c0.1,0,0.19,0.08,0.19,0.19l0.85,16.81c0,0.01,0,0.03,0,0.04C11.21,52.66,11.12,52.75,11.01,52.75z
				 M9.52,52.36h1.28L10.16,39.6L9.52,52.36z"/>
		</g>
		<g>
			<rect x="7.59" y="48.97" class="st4" width="5.25" height="0.87"/>
			<path class="st5" d="M12.84,50.03H7.59c-0.11,0-0.2-0.09-0.2-0.19v-0.87c0-0.11,0.09-0.19,0.2-0.19h5.25
				c0.11,0,0.2,0.09,0.2,0.19v0.87C13.03,49.94,12.94,50.03,12.84,50.03z M7.79,49.64h4.85v-0.48H7.79V49.64z"/>
		</g>
		<g>
			<line class="st4" x1="9.43" y1="51.09" x2="10.92" y2="49.84"/>
			<path class="st5" d="M9.43,51.28c-0.06,0-0.11-0.02-0.15-0.07c-0.07-0.08-0.06-0.21,0.02-0.28l1.49-1.25
				c0.08-0.07,0.21-0.06,0.28,0.02c0.07,0.08,0.06,0.21-0.02,0.27l-1.49,1.25C9.52,51.27,9.48,51.28,9.43,51.28z"/>
		</g>
		<g>
			<line class="st4" x1="9.38" y1="52.24" x2="10.9" y2="50.98"/>
			<path class="st5" d="M9.38,52.44c-0.06,0-0.11-0.02-0.15-0.07c-0.07-0.08-0.06-0.2,0.02-0.27l1.52-1.26
				c0.08-0.07,0.21-0.06,0.28,0.02c0.07,0.08,0.06,0.21-0.03,0.28L9.5,52.39C9.47,52.42,9.42,52.44,9.38,52.44z"/>
		</g>
		<g>
			<path class="st4" d="M15.33,37.26H5.06l-2.65,5.99c0.04,1.42,1.21,2.57,2.65,2.57c1.44,0,2.61-1.14,2.65-2.57l-2.33-5.27h9.63
				l-2.33,5.27c0.04,1.42,1.21,2.57,2.65,2.57c1.44,0,2.61-1.14,2.65-2.57L15.33,37.26z M7.01,43.19h-3.9l1.95-4.47L7.01,43.19z
				 M13.38,43.19l1.95-4.47l1.95,4.47H13.38z"/>
			<path class="st5" d="M15.32,46.01c-1.55,0-2.8-1.21-2.84-2.76c0-0.03,0-0.06,0.01-0.08l2.21-4.99H5.68l2.21,4.99
				c0.01,0.03,0.02,0.06,0.02,0.08c-0.04,1.55-1.29,2.76-2.85,2.76c-1.55,0-2.8-1.21-2.85-2.76c0-0.03,0-0.06,0.02-0.08l2.65-5.99
				c0.03-0.07,0.1-0.12,0.18-0.12h10.27c0.08,0,0.15,0.04,0.18,0.12l2.65,5.99c0.01,0.03,0.02,0.06,0.01,0.08
				C18.13,44.8,16.88,46.01,15.32,46.01z M12.87,43.29c0.06,1.31,1.13,2.34,2.45,2.34s2.39-1.02,2.45-2.34l-2.58-5.83H5.18
				l-2.58,5.83c0.06,1.31,1.13,2.34,2.45,2.34c1.32,0,2.39-1.02,2.45-2.34L5.2,38.06C5.17,38,5.18,37.93,5.21,37.88
				c0.03-0.05,0.1-0.09,0.16-0.09h9.63c0.07,0,0.13,0.03,0.16,0.09c0.04,0.06,0.04,0.13,0.01,0.19L12.87,43.29z M17.27,43.38h-3.9
				c-0.07,0-0.13-0.03-0.16-0.09c-0.04-0.05-0.04-0.12-0.02-0.18l1.95-4.47c0.03-0.07,0.1-0.12,0.18-0.12
				c0.08,0,0.15,0.05,0.18,0.12l1.95,4.47c0.03,0.06,0.02,0.13-0.02,0.18C17.4,43.35,17.34,43.38,17.27,43.38z M13.67,42.99h3.3
				l-1.65-3.79L13.67,42.99z M7.01,43.38h-3.9c-0.07,0-0.13-0.03-0.16-0.09c-0.04-0.05-0.04-0.12-0.02-0.18l1.95-4.47
				c0.03-0.07,0.1-0.12,0.18-0.12c0.08,0,0.15,0.05,0.18,0.12l1.95,4.47c0.03,0.06,0.02,0.13-0.02,0.18
				C7.14,43.35,7.07,43.38,7.01,43.38z M3.41,42.99h3.3l-1.65-3.79L3.41,42.99z"/>
		</g>
	</g>
</g>
</svg>
